# xmcd
#
# Track frame offsets:
#	150
#	15210
#	30555
#	45770
#	64782
#	77824
#	95201
#	112074
#	125508
#	143235
#	158392
#	171708
#	186450
#	202136
#	217417
#	232151
#	246544
#	260499
#	278289
#
# Disc length: 3930 seconds
#
# Revision: 1
# Processed by: cddbd v1.5.2PL0 Copyright (c) Steve Scherf et al.
# Submitted via: audiograbber 1.83.01
#
DISCID=1d0f5813
DTITLE=Various Artist - Hott Country 208
DYEAR=2013
DGENRE=Country
TTITLE0=Tebey - Till It's Gone
TTITLE1=Keith Urban - Little Bit Of Everything
TTITLE2=Florida Georgia Line - Round Here
TTITLE3=Kenny Chesney - When I See This Bar
TTITLE4=John Fogerty Feat Zac Brown Band - Bad Moon Rising
TTITLE5=Jason Blaine - Roxk It Country Girl
TTITLE6=Dierks Bentley - Bourbon In Kentucky
TTITLE7=Chris Young - Aw Kaw
TTITLE8=Lynne Taylor Donovan - Turn To Stone
TTITLE9=Jake Matthews - Beer Necessities
TTITLE10=Dustin Lynch - Wild In Your Smile
TTITLE11=Kix Brooks - Complete 360
TTITLE12=Casey James - The Good Life
TTITLE13=Hayley - Sounds Like A Love Song
TTITLE14=John Fogerty Feat Alan Jackson - Have You Ever Seen The Rain
TTITLE15=One More Girl - Run Run Run
TTITLE16=Boom Chucka Boys - Find My Peace Of Mind
TTITLE17=Trace Adkins Feat Colby Caillat - Watch The Worls End
TTITLE18=Maggie Rose - Better
EXTD=June 2013
EXTT0=
EXTT1=
EXTT2=
EXTT3=
EXTT4=
EXTT5=
EXTT6=
EXTT7=
EXTT8=
EXTT9=
EXTT10=
EXTT11=
EXTT12=
EXTT13=
EXTT14=
EXTT15=
EXTT16=
EXTT17=
EXTT18=
PLAYORDER=
